<svg xmlns="http://www.w3.org/2000/svg" width="16.728" height="20.073" viewBox="0 0 16.728 20.073">
  <path id="apple" d="M18.728,14.727c-.657,1.907-2.626,5.284-4.653,5.32-1.345.026-1.777-.8-3.315-.8s-2.017.772-3.289.822C5.321,20.155,2,15.2,2,10.876,2,6.905,4.767,4.937,7.184,4.9c1.3-.023,2.521.874,3.311.874S12.776,4.7,14.34,4.855a4.691,4.691,0,0,1,3.671,1.988,4.431,4.431,0,0,0,.718,7.884ZM14.361,0a4.442,4.442,0,0,0-4.023,4.626C12.522,4.8,14.618,2.347,14.361,0Z" transform="translate(-2)"/>
</svg>
