<svg xmlns="http://www.w3.org/2000/svg" width="345" height="68.194" viewBox="0 0 345 68.194">
  <g id="logo" transform="translate(117.078 -104.17)">
    <g id="_.live" data-name=".live" transform="translate(194.227 159.102)">
      <path id="Path_888" data-name="Path 888" d="M695.137,328a1.212,1.212,0,0,1,1.244,1.225v.173a1.283,1.283,0,0,1-2.5,0v-.173A1.212,1.212,0,0,1,695.137,328Z" transform="translate(-693.88 -317.484)" fill="#fff"/>
      <path id="Path_889" data-name="Path 889" d="M701.85,312.664a1.058,1.058,0,0,1,1.064-1.064A1.077,1.077,0,0,1,704,312.664v11a1.077,1.077,0,0,1-2.148,0Z" transform="translate(-696.74 -311.6)" fill="#fff"/>
      <path id="Path_890" data-name="Path 890" d="M709.51,312.807a1.238,1.238,0,0,1,2.449,0v.109a1.238,1.238,0,0,1-2.45,0Zm.16,3.5a1.058,1.058,0,0,1,1.064-1.084,1.077,1.077,0,0,1,1.084,1.084v7.412a1.077,1.077,0,0,1-2.148,0Z" transform="translate(-699.488 -311.653)" fill="#fff"/>
      <path id="Path_891" data-name="Path 891" d="M721.008,326.82h-.1a1.327,1.327,0,0,1-1.225-.936l-3.123-7.156a1.551,1.551,0,0,1-.128-.532,1.09,1.09,0,0,1,2.129-.25l2.417,6.213,2.449-6.245a1.058,1.058,0,0,1,1.007-.744,1.026,1.026,0,0,1,1.051,1.026,1.175,1.175,0,0,1-.128.513l-3.123,7.175A1.359,1.359,0,0,1,721.008,326.82Z" transform="translate(-701.971 -313.598)" fill="#fff"/>
      <path id="Path_892" data-name="Path 892" d="M737.157,326.808a4.674,4.674,0,0,1-4.809-4.867v-.032a4.665,4.665,0,0,1,4.578-4.88,4.428,4.428,0,0,1,4.45,4.61,1.007,1.007,0,0,1-1.013,1.032h-5.873a2.616,2.616,0,0,0,2.7,2.379,3.354,3.354,0,0,0,2.219-.821.807.807,0,0,1,.551-.192.846.846,0,0,1,.853.872.943.943,0,0,1-.288.641A4.8,4.8,0,0,1,737.157,326.808Zm2.129-5.553a2.436,2.436,0,0,0-2.379-2.469,2.534,2.534,0,0,0-2.43,2.469Z" transform="translate(-707.68 -313.548)" fill="#fff"/>
    </g>
    <g id="TraderPro" transform="translate(2.16 115.478)">
      <path id="Path_893" data-name="Path 893" d="M405.664,251.719h-8.381a2.808,2.808,0,1,1,0-5.611h22.885a2.808,2.808,0,0,1,0,5.611h-8.413V277.81a3.052,3.052,0,1,1-6.1,0Z" transform="translate(-394.341 -244.477)" fill="#fff"/>
      <path id="Path_894" data-name="Path 894" d="M439.08,261.832a2.943,2.943,0,0,1,2.95-3.007,2.988,2.988,0,0,1,3,3.007v2.655c1.379-3.251,3.943-5.707,6.547-5.707a2.93,2.93,0,0,1,.6,5.8c-4.238.744-7.143,3.988-7.143,10.144v7.694a2.969,2.969,0,0,1-3,2.956,2.93,2.93,0,0,1-2.95-2.956Z" transform="translate(-410.393 -249.025)" fill="#fff"/>
      <path id="Path_895" data-name="Path 895" d="M463.33,277.641v-.115c0-5.611,4.379-8.336,10.734-8.336a21.679,21.679,0,0,1,6.989,1.084v-.641c0-3.687-2.263-5.656-6.451-5.656a15.389,15.389,0,0,0-5.771,1.032,3.454,3.454,0,0,1-.936.147,2.475,2.475,0,0,1-2.507-2.462,2.565,2.565,0,0,1,1.622-2.36,22.256,22.256,0,0,1,8.368-1.526c3.886,0,6.79,1.032,8.611,2.9,1.924,1.866,2.808,4.623,2.808,8.021v12.824a2.84,2.84,0,0,1-2.9,2.853,2.691,2.691,0,0,1-2.9-2.514v-.981a10.554,10.554,0,0,1-8.464,3.79C467.665,285.663,463.33,282.854,463.33,277.641Zm17.819-1.872V274a16.393,16.393,0,0,0-5.906-1.039c-3.847,0-6.1,1.629-6.1,4.335v.1c0,2.514,2.219,3.937,5.072,3.937C478.148,281.328,481.149,279.065,481.149,275.769Z" transform="translate(-419.094 -249.035)" fill="#fff"/>
      <path id="Path_896" data-name="Path 896" d="M533.039,276.943a2.982,2.982,0,0,1-5.957,0v-1.622a10.415,10.415,0,0,1-8.861,4.873c-6.1,0-12.061-4.873-12.061-13.465v-.1c0-8.611,5.861-13.465,12.061-13.465a10.632,10.632,0,0,1,8.861,4.578v-11.33a2.982,2.982,0,0,1,5.957,0Zm-20.871-10.336v.1c0,5.021,3.443,8.336,7.483,8.336s7.528-3.347,7.528-8.336v-.1c0-5.021-3.54-8.336-7.528-8.336C515.567,258.291,512.168,261.439,512.168,266.607Z" transform="translate(-434.461 -243.566)" fill="#fff"/>
      <path id="Path_897" data-name="Path 897" d="M568.017,285.607c-7.528,0-13.337-5.47-13.337-13.465v-.1c0-7.432,5.264-13.536,12.7-13.536,8.272,0,12.356,6.79,12.356,12.824a2.783,2.783,0,0,1-2.809,2.853H560.656a7.257,7.257,0,0,0,7.477,6.6,9.375,9.375,0,0,0,6.155-2.263,2.205,2.205,0,0,1,1.526-.545,2.34,2.34,0,0,1,2.359,2.411,2.6,2.6,0,0,1-.782,1.821A13.37,13.37,0,0,1,568.017,285.607Zm5.906-15.389c-.391-3.847-2.654-6.842-6.592-6.842-3.649,0-6.207,2.8-6.745,6.842Z" transform="translate(-451.869 -248.928)" fill="#fff"/>
      <path id="Path_898" data-name="Path 898" d="M600.43,261.832a2.943,2.943,0,0,1,2.95-3.007,2.988,2.988,0,0,1,3,3.007v2.655c1.378-3.251,3.943-5.707,6.547-5.707a2.93,2.93,0,0,1,.59,5.8c-4.232.744-7.137,3.988-7.137,10.144v7.695a2.969,2.969,0,0,1-3,2.956,2.93,2.93,0,0,1-2.95-2.956Z" transform="translate(-468.284 -249.025)" fill="#fff"/>
      <path id="Path_899" data-name="Path 899" d="M630.36,249.162a3.007,3.007,0,0,1,3.052-3.052h10.535c8.073,0,13.094,4.578,13.094,11.542v.1c0,7.694-6.2,11.76-13.786,11.76h-6.842v8.336a3.026,3.026,0,0,1-6.053,0Zm13.094,14.863c4.578,0,7.432-2.565,7.432-6.149v-.1c0-4.033-2.9-6.149-7.432-6.149H636.4v12.4Z" transform="translate(-479.023 -244.479)" fill="#d6df22"/>
      <path id="Path_900" data-name="Path 900" d="M677.716,261.832a2.949,2.949,0,0,1,2.956-3.007,2.988,2.988,0,0,1,3,3.007v2.655c1.379-3.251,3.937-5.707,6.547-5.707a2.93,2.93,0,0,1,.59,5.8c-4.232.75-7.143,3.988-7.143,10.144v7.694a2.968,2.968,0,0,1-3,2.956,2.937,2.937,0,0,1-2.956-2.956Z" transform="translate(-496.012 -249.025)" fill="#d6df22"/>
      <path id="Path_901" data-name="Path 901" d="M703,272.153v-.1a13.861,13.861,0,0,1,27.713-.122v.1a13.59,13.59,0,0,1-13.933,13.536A13.407,13.407,0,0,1,703,272.153Zm21.756,0v-.1c0-4.578-3.3-8.368-7.977-8.368s-7.823,3.738-7.823,8.265v.1a8.025,8.025,0,0,0,7.925,8.336c4.809-.019,7.861-3.764,7.861-8.24Z" transform="translate(-505.086 -248.913)" fill="#d6df22"/>
    </g>
    <path id="Path_905" data-name="Path 905" d="M589.5,277.6c2.271,11.494-4.271,12.551-8.017,12.468H556.16a24.887,24.887,0,0,1,9.353,10.155h17.37C607.773,300.258,589.5,277.6,589.5,277.6Z" transform="translate(-607.993 -173.425)" fill="#fff"/>
    <path id="Path_906" data-name="Path 906" d="M217.986,290.038H180c-3.755.084-10.295-.974-8.025-12.468,0,0-18.273,22.658,6.624,22.619h39.408a11.013,11.013,0,1,1-7.487,2.953H198.436a21.139,21.139,0,1,0,19.549-13.1Z" transform="translate(-282.59 -173.4)" fill="#fff"/>
    <path id="Path_907" data-name="Path 907" d="M366.694,430.76c.027-.025.05-.055.078-.08H354.693a21.129,21.129,0,0,0-.89,13.455A21.655,21.655,0,0,1,366.694,430.76Z" transform="translate(-438.848 -300.938)" fill="#1d1d1b" opacity="0.48"/>
  </g>
</svg>
