<svg xmlns="http://www.w3.org/2000/svg" width="36" height="36" viewBox="0 0 36 36">
  <path id="twitter" d="M0,0V36H36V0ZM28.293,13.856A14,14,0,0,1,6.75,26.291a9.907,9.907,0,0,0,7.29-2.038,4.928,4.928,0,0,1-4.6-3.42,4.951,4.951,0,0,0,2.223-.084,4.929,4.929,0,0,1-3.95-4.89,4.9,4.9,0,0,0,2.229.617A4.933,4.933,0,0,1,8.42,9.9a13.98,13.98,0,0,0,10.149,5.145,4.927,4.927,0,0,1,8.391-4.49,9.853,9.853,0,0,0,3.127-1.194,4.938,4.938,0,0,1-2.165,2.724,9.867,9.867,0,0,0,2.827-.776,10.06,10.06,0,0,1-2.457,2.546Z" fill="#fff"/>
</svg>
