<svg width="21" height="21" viewBox="0 0 21 21" fill="none" xmlns="http://www.w3.org/2000/svg">
<path d="M10.5 0C4.704 0 0 4.704 0 10.5C0 16.296 4.704 21 10.5 21C16.296 21 21 16.296 21 10.5C21 4.704 16.296 0 10.5 0ZM10.5 3.15C12.243 3.15 13.65 4.557 13.65 6.3C13.65 8.043 12.243 9.45 10.5 9.45C8.757 9.45 7.35 8.043 7.35 6.3C7.35 4.557 8.757 3.15 10.5 3.15ZM10.5 18.06C9.25245 18.06 8.02429 17.7513 6.92504 17.1613C5.82579 16.5714 4.88962 15.7186 4.2 14.679C4.2315 12.5895 8.4 11.445 10.5 11.445C12.5895 11.445 16.7685 12.5895 16.8 14.679C16.1104 15.7186 15.1742 16.5714 14.075 17.1613C12.9757 17.7513 11.7475 18.06 10.5 18.06Z" fill="#616166"/>
</svg>
