<svg width="32" height="30" viewBox="0 0 32 30" fill="none" xmlns="http://www.w3.org/2000/svg">
<path d="M28.4001 1.18625C24.1615 4.88267 20.5755 8.4014 17.2925 12.9923C15.8446 15.0172 14.2345 17.4005 13.182 19.6506C12.5812 20.8438 11.498 22.7082 11.1288 24.5007C9.10922 22.6075 6.93994 20.4586 4.72043 18.7754C3.13844 17.5761 -1.41815 20.0212 0.436638 21.4275C3.76088 23.9469 6.52548 27.085 9.75879 29.7168C11.1112 30.8163 14.1084 28.4285 14.8127 27.4267C17.1247 24.1261 17.4407 20.0915 19.1257 16.4913C21.6983 10.9851 26.261 6.46207 30.7658 2.53431C33.7504 -0.270653 30.6678 -0.78801 28.4046 1.18625" fill="#37B34A"/>
</svg>
