<svg width="53" height="38" viewBox="0 0 53 38" fill="none" xmlns="http://www.w3.org/2000/svg">
<path d="M17.9821 0C16.2272 0.00700419 14.5462 0.709876 13.3053 1.95548C12.0644 3.20108 11.3641 4.88847 11.3571 6.65C11.3571 10.3018 14.3441 13.3 17.9821 13.3C21.6202 13.3 24.6071 10.3018 24.6071 6.65C24.6071 2.9982 21.6202 0 17.9821 0ZM35.0179 0C33.2629 0.00700419 31.5819 0.709876 30.341 1.95548C29.1001 3.20108 28.3998 4.88847 28.3929 6.65C28.3929 10.3018 31.3798 13.3 35.0179 13.3C38.6559 13.3 41.6429 10.3018 41.6429 6.65C41.6429 2.9982 38.6559 0 35.0179 0ZM17.9821 3.8C19.5721 3.8 20.8214 5.054 20.8214 6.65C20.8214 8.246 19.5721 9.5 17.9821 9.5C16.3921 9.5 15.1429 8.246 15.1429 6.65C15.1429 5.054 16.3921 3.8 17.9821 3.8ZM35.0179 3.8C36.6079 3.8 37.8571 5.054 37.8571 6.65C37.8571 8.246 36.6079 9.5 35.0179 9.5C33.4279 9.5 32.1786 8.246 32.1786 6.65C32.1786 5.054 33.4279 3.8 35.0179 3.8ZM9.46429 11.4C5.3 11.4 1.89286 14.82 1.89286 19C1.89286 21.1147 2.79575 23.0223 4.20025 24.4036C2.91183 25.2763 1.85556 26.4521 1.12347 27.8284C0.391385 29.2047 0.00569319 30.7398 0 32.3H3.78571C3.78571 29.1308 6.307 26.6 9.46429 26.6C12.6216 26.6 15.1429 29.1308 15.1429 32.3H18.9286C18.9229 30.7398 18.5372 29.2047 17.8051 27.8284C17.073 26.4521 16.0167 25.2763 14.7283 24.4036C16.1328 23.0223 17.0357 21.1166 17.0357 19C17.0357 14.82 13.6286 11.4 9.46429 11.4ZM18.9286 32.3C17.7455 33.8884 17.0357 35.8853 17.0357 38H20.8214C20.8214 34.8308 23.3427 32.3 26.5 32.3C29.6573 32.3 32.1786 34.8308 32.1786 38H35.9643C35.961 35.945 35.2972 33.9459 34.0714 32.3C33.4279 31.4393 32.6518 30.704 31.764 30.1036C33.1685 28.7223 34.0714 26.8166 34.0714 24.7C34.0714 20.52 30.6643 17.1 26.5 17.1C22.3357 17.1 18.9286 20.52 18.9286 24.7C18.9286 26.8147 19.8315 28.7223 21.236 30.1036C20.3499 30.7011 19.5699 31.4435 18.9286 32.3ZM34.0714 32.3H37.8571C37.8571 29.1308 40.3784 26.6 43.5357 26.6C46.693 26.6 49.2143 29.1308 49.2143 32.3H53C52.9943 30.7398 52.6086 29.2047 51.8765 27.8284C51.1444 26.4521 50.0882 25.2763 48.7998 24.4036C50.2043 23.0223 51.1071 21.1166 51.1071 19C51.1071 14.82 47.7 11.4 43.5357 11.4C39.3714 11.4 35.9643 14.82 35.9643 19C35.9643 21.1147 36.8672 23.0223 38.2717 24.4036C36.9833 25.2763 35.927 26.4521 35.1949 27.8284C34.4628 29.2047 34.0771 30.7398 34.0714 32.3ZM9.46429 15.2C11.5786 15.2 13.25 16.8777 13.25 19C13.25 21.1223 11.5786 22.8 9.46429 22.8C7.34996 22.8 5.67857 21.1223 5.67857 19C5.67857 16.8777 7.34996 15.2 9.46429 15.2ZM43.5357 15.2C45.65 15.2 47.3214 16.8777 47.3214 19C47.3214 21.1223 45.65 22.8 43.5357 22.8C41.4214 22.8 39.75 21.1223 39.75 19C39.75 16.8777 41.4214 15.2 43.5357 15.2ZM26.5 20.9C28.6143 20.9 30.2857 22.5777 30.2857 24.7C30.2857 26.8223 28.6143 28.5 26.5 28.5C24.3857 28.5 22.7143 26.8223 22.7143 24.7C22.7143 22.5777 24.3857 20.9 26.5 20.9Z" fill="#787885"/>
</svg>
