<svg width="106" height="106" viewBox="0 0 106 106" fill="none" xmlns="http://www.w3.org/2000/svg">
<path d="M53.0132 29.5401L76.4334 52.9603L53.0132 76.3804L29.5931 52.9603L53.0132 29.5401ZM53.0132 91.1107L14.8628 52.9603L53.0132 14.8098L84.8053 46.6019V27.3677L60.5374 3.09973C56.4044 -1.03324 49.6751 -1.03324 45.5421 3.09973L3.09973 45.4891C-1.03324 49.6221 -1.03324 56.3514 3.09973 60.4844L45.5421 102.874C49.6751 107.007 56.4044 107.007 60.5374 102.874L84.8053 78.5529V59.3187L53.0132 91.1107ZM95.4026 95.4026H106V106H95.4026V95.4026ZM106 42.4159H95.4026V84.8053H106V42.4159Z" fill="url(#paint0_linear_222_2219)"/>
<defs>
<linearGradient id="paint0_linear_222_2219" x1="53" y1="0" x2="53" y2="106" gradientUnits="userSpaceOnUse">
<stop stop-color="#16BA16"/>
<stop offset="1" stop-color="#2CCCC4"/>
</linearGradient>
</defs>
</svg>
