<svg width="33" height="33" viewBox="0 0 33 33" fill="none" xmlns="http://www.w3.org/2000/svg">
<path d="M1.03125 0C1.30475 0 1.56706 0.108649 1.76045 0.302046C1.95385 0.495443 2.0625 0.757746 2.0625 1.03125V31.9688C2.0625 32.2423 1.95385 32.5046 1.76045 32.698C1.56706 32.8913 1.30475 33 1.03125 33C0.757746 33 0.495443 32.8913 0.302046 32.698C0.108649 32.5046 0 32.2423 0 31.9688V1.03125C0 0.757746 0.108649 0.495443 0.302046 0.302046C0.495443 0.108649 0.757746 0 1.03125 0V0ZM4.125 3.09375C4.125 2.82025 4.23365 2.55794 4.42705 2.36455C4.62044 2.17115 4.88275 2.0625 5.15625 2.0625H13.4062C13.6798 2.0625 13.9421 2.17115 14.1355 2.36455C14.3289 2.55794 14.4375 2.82025 14.4375 3.09375V5.15625C14.4375 5.42975 14.3289 5.69206 14.1355 5.88545C13.9421 6.07885 13.6798 6.1875 13.4062 6.1875H5.15625C4.88275 6.1875 4.62044 6.07885 4.42705 5.88545C4.23365 5.69206 4.125 5.42975 4.125 5.15625V3.09375ZM8.25 11.3438C8.25 11.0702 8.35865 10.8079 8.55205 10.6145C8.74544 10.4211 9.00775 10.3125 9.28125 10.3125H23.7188C23.9923 10.3125 24.2546 10.4211 24.448 10.6145C24.6414 10.8079 24.75 11.0702 24.75 11.3438V13.4062C24.75 13.6798 24.6414 13.9421 24.448 14.1355C24.2546 14.3289 23.9923 14.4375 23.7188 14.4375H9.28125C9.00775 14.4375 8.74544 14.3289 8.55205 14.1355C8.35865 13.9421 8.25 13.6798 8.25 13.4062V11.3438ZM12.375 19.5938C12.375 19.3202 12.4836 19.0579 12.677 18.8645C12.8704 18.6711 13.1327 18.5625 13.4062 18.5625H25.7812C26.0548 18.5625 26.3171 18.6711 26.5105 18.8645C26.7039 19.0579 26.8125 19.3202 26.8125 19.5938V21.6562C26.8125 21.9298 26.7039 22.1921 26.5105 22.3855C26.3171 22.5789 26.0548 22.6875 25.7812 22.6875H13.4062C13.1327 22.6875 12.8704 22.5789 12.677 22.3855C12.4836 22.1921 12.375 21.9298 12.375 21.6562V19.5938ZM16.5 27.8438C16.5 27.5702 16.6086 27.3079 16.802 27.1145C16.9954 26.9211 17.2577 26.8125 17.5312 26.8125H31.9688C32.2423 26.8125 32.5046 26.9211 32.698 27.1145C32.8913 27.3079 33 27.5702 33 27.8438V29.9062C33 30.1798 32.8913 30.4421 32.698 30.6355C32.5046 30.8289 32.2423 30.9375 31.9688 30.9375H17.5312C17.2577 30.9375 16.9954 30.8289 16.802 30.6355C16.6086 30.4421 16.5 30.1798 16.5 29.9062V27.8438Z" fill="#787885"/>
</svg>
