<svg width="20" height="15" viewBox="0 0 20 15" fill="none" xmlns="http://www.w3.org/2000/svg">
<path d="M19.7232 8.16354L13.0562 14.7249C12.4609 15.3108 11.4291 14.9007 11.4291 14.061V10.3116H6.03205C5.50424 10.3116 5.07962 9.89372 5.07962 9.37427V5.6249C5.07962 5.10545 5.50424 4.68755 6.03205 4.68755H11.4291V0.938175C11.4291 0.102376 12.457 -0.311617 13.0562 0.274223L19.7232 6.83563C20.0923 7.20276 20.0923 7.79641 19.7232 8.16354ZM7.61943 14.5297V12.9674C7.61943 12.7097 7.40513 12.4988 7.14321 12.4988H3.80971C3.1073 12.4988 2.53981 11.9403 2.53981 11.249V3.75021C2.53981 3.05892 3.1073 2.50042 3.80971 2.50042H7.14321C7.40513 2.50042 7.61943 2.28951 7.61943 2.03174V0.469503C7.61943 0.211733 7.40513 0.000830666 7.14321 0.000830666H3.80971C1.70643 0.000830666 0 1.68024 0 3.75021V11.249C0 13.3189 1.70643 14.9983 3.80971 14.9983H7.14321C7.40513 14.9983 7.61943 14.7874 7.61943 14.5297Z" fill="#616166"/>
</svg>
