<svg width="19" height="19" viewBox="0 0 19 19" fill="none" xmlns="http://www.w3.org/2000/svg">
<path fill-rule="evenodd" clip-rule="evenodd" d="M9.49772 14.3529C7.78319 14.3529 6.0413 13.3351 5.02471 11.9879C0.147435 11.9879 0 18.9555 0 18.9555H18.9943C18.9943 18.9555 19.3771 11.957 13.8923 11.957C12.8769 13.3208 11.2123 14.3529 9.49772 14.3529V14.3529Z" fill="#616166"/>
<path fill-rule="evenodd" clip-rule="evenodd" d="M13.5838 6.00111C13.5838 8.00576 11.7539 11.8391 9.49479 11.8391C7.23926 11.8391 5.4082 8.00457 5.4082 6.00111C5.4082 3.99764 7.23807 2.37109 9.49479 2.37109C11.7539 2.37228 13.5838 3.99883 13.5838 6.00111V6.00111Z" fill="#616166"/>
<path fill-rule="evenodd" clip-rule="evenodd" d="M15.4077 4.27088C15.4077 3.89516 14.8846 3.59196 14.2354 3.58959V2.81555C14.2354 2.70022 14.2794 0 9.5091 0C4.74122 0 4.78521 2.70022 4.78521 2.81555V3.61693C4.77332 3.61693 4.76381 3.61337 4.75311 3.61337C4.10748 3.61337 3.58789 3.91181 3.58789 4.28158V7.55609C3.58789 7.92349 4.10867 8.22312 4.75311 8.22312C5.39755 8.22312 5.92071 7.92349 5.92071 7.55609V4.28158C5.92071 4.23046 5.8886 4.18409 5.86958 4.13653V3.24359C5.86958 3.16155 5.52715 1.1236 9.5091 1.1236C13.4922 1.1236 13.0785 3.16155 13.0785 3.24359V4.18409C13.0713 4.21381 13.0488 4.23997 13.0488 4.27088V7.62029C13.0488 7.99721 13.5755 8.30278 14.2282 8.30278C14.2425 8.30278 14.2532 8.29802 14.2675 8.29802V9.5215H13.0975V10.6748H15.4196L15.4077 4.27088V4.27088Z" fill="#616166"/>
</svg>
