<svg width="18" height="18" viewBox="0 0 18 18" fill="none" xmlns="http://www.w3.org/2000/svg">
<path fill-rule="evenodd" clip-rule="evenodd" d="M2 0.43103C0.89 0.43103 0 1.29144 0 2.36453V15.899C0 16.9721 0.89 17.8325 2 17.8325H16C17.11 17.8325 18 16.9721 18 15.899V2.36453C18 1.29144 17.11 0.43103 16 0.43103H2ZM2 2.36453H16V15.899H2V2.36453ZM4 6.23153V4.29803H14V6.23153H4ZM4 8.16503V10.0985H14V8.16503H4ZM4 13.9655V12.032H11V13.9655H4Z" fill="black"/>
<mask id="mask0" mask-type="alpha" maskUnits="userSpaceOnUse" x="0" y="0" width="18" height="18">
<path fill-rule="evenodd" clip-rule="evenodd" d="M2 0.43103C0.89 0.43103 0 1.29144 0 2.36453V15.899C0 16.9721 0.89 17.8325 2 17.8325H16C17.11 17.8325 18 16.9721 18 15.899V2.36453C18 1.29144 17.11 0.43103 16 0.43103H2ZM2 2.36453H16V15.899H2V2.36453ZM4 6.23153V4.29803H14V6.23153H4ZM4 8.16503V10.0985H14V8.16503H4ZM4 13.9655V12.032H11V13.9655H4Z" fill="white"/>
</mask>
<g mask="url(#mask0)">
<rect y="0.43103" width="18" height="17.4015" fill="#503E9D"/>
</g>
</svg>
